<?xml version="1.0" encoding="UTF-8" standalone="no"?>
<!-- Created with Inkscape (http://www.inkscape.org/) -->

<svg
   width="210mm"
   height="297mm"
   viewBox="0 0 210 297"
   version="1.1"
   id="svg1"
   inkscape:version="1.3.2 (091e20ef0f, 2023-11-25, custom)"
   sodipodi:docname="dripbot_copper.svg"
   xmlns:inkscape="http://www.inkscape.org/namespaces/inkscape"
   xmlns:sodipodi="http://sodipodi.sourceforge.net/DTD/sodipodi-0.dtd"
   xmlns="http://www.w3.org/2000/svg"
   xmlns:svg="http://www.w3.org/2000/svg">
  <sodipodi:namedview
     id="namedview1"
     pagecolor="#ffffff"
     bordercolor="#000000"
     borderopacity="0.25"
     inkscape:showpageshadow="2"
     inkscape:pageopacity="0.0"
     inkscape:pagecheckerboard="0"
     inkscape:deskcolor="#d1d1d1"
     inkscape:document-units="mm"
     inkscape:zoom="6.1227246"
     inkscape:cx="365.8502"
     inkscape:cy="508.67877"
     inkscape:window-width="2256"
     inkscape:window-height="1437"
     inkscape:window-x="0"
     inkscape:window-y="30"
     inkscape:window-maximized="1"
     inkscape:current-layer="layer1" />
  <defs
     id="defs1" />
  <g
     inkscape:label="Layer 1"
     inkscape:groupmode="layer"
     id="layer1">
    <path
       style="fill:#b2803a;stroke:#d42c2c;stroke-width:0.0286552;stroke-linecap:round"
       d="m 104.30363,154.9516 c -0.0444,-0.0444 -0.0447,-0.0588 -0.004,-0.19259 0.0615,-0.2028 0.0254,-0.49983 -0.0884,-0.72724 -0.0913,-0.1824 -0.19816,-0.27343 -0.32104,-0.27343 -0.1397,0 -0.25568,-0.21792 -0.27983,-0.52578 l -0.0118,-0.15077 0.0712,0.12754 c 0.0829,0.14848 0.11466,0.16843 0.11437,0.0718 -2e-4,-0.0639 0.006,-0.0703 0.0834,-0.0831 0.046,-0.008 0.0992,-0.0333 0.11812,-0.057 0.0249,-0.0311 0.07,-0.0466 0.16157,-0.0554 0.18316,-0.0176 0.36623,-0.11584 0.56607,-0.30383 0.15657,-0.14729 0.17025,-0.15554 0.19422,-0.11715 0.0228,0.0365 0.0197,0.0413 -0.0265,0.0413 -0.0652,0 -0.14135,0.0924 -0.14135,0.17152 0,0.0865 0.0429,0.19361 0.0775,0.19361 0.0241,0 0.0275,-0.0241 0.0166,-0.11659 -0.0128,-0.10867 -0.01,-0.12039 0.047,-0.17282 l 0.0607,-0.0563 0.0505,0.0815 c 0.14426,0.23275 0.48457,1.01298 0.54142,1.24135 0.0242,0.0973 0.0224,0.11751 -0.0196,0.21478 -0.0496,0.11486 -0.23894,0.41807 -0.26139,0.41854 -0.007,1.5e-4 -0.026,-0.03 -0.0414,-0.067 -0.0318,-0.0769 -0.12194,-0.19045 -0.15107,-0.19045 -0.03,0 -0.0233,0.11288 0.0126,0.21478 0.0602,0.17062 0.0537,0.17743 -0.25774,0.2715 -0.23754,0.0718 -0.46246,0.0899 -0.51116,0.0412 z m 0.72742,-0.66741 c 0.0194,-0.10328 -0.0239,-0.20369 -0.0877,-0.20369 -0.0442,0 -0.0749,0.0359 -0.0749,0.0877 0,0.0109 0.0142,0.0197 0.0315,0.0197 0.0372,0 0.0759,0.065 0.0759,0.12746 0,0.0728 0.0399,0.0503 0.0552,-0.0312 z m -0.26954,-0.74498 c -0.0239,-0.0775 -0.0595,-0.15409 -0.0791,-0.17027 -0.0324,-0.0268 -0.0346,-0.0215 -0.0239,0.0585 0.0164,0.12303 0.0978,0.30139 0.12506,0.2741 0.0143,-0.0143 0.007,-0.0684 -0.022,-0.16232 z"
       id="path2" />
    <path
       style="fill:#b2803a;stroke:#d42c2c;stroke-width:0.0286552;stroke-linecap:round"
       d="m 103.98034,154.37102 c -0.007,-0.0174 -0.17443,-0.11335 -0.37279,-0.2132 -0.19835,-0.0998 -0.41347,-0.21608 -0.47804,-0.25829 -0.0646,-0.0422 -0.13803,-0.0768 -0.16324,-0.0768 -0.0437,0 -0.20503,-0.10212 -0.23308,-0.14752 -0.007,-0.0118 -0.0647,-0.0364 -0.12763,-0.0547 -0.17825,-0.0518 -0.28942,-0.15835 -0.26046,-0.2496 0.007,-0.0232 0.0241,-0.0421 0.0372,-0.0421 0.0131,0 0.29035,0.10533 0.61604,0.23406 0.56261,0.22236 0.91221,0.34584 0.97918,0.34584 0.0528,0 0.17949,0.14657 0.20339,0.2353 0.0328,0.12172 0.009,0.19289 -0.0771,0.22879 -0.0904,0.0377 -0.1084,0.0375 -0.12346,-0.002 z"
       id="path3" />
    <path
       style="fill:#b2803a;stroke:#d42c2c;stroke-width:0.0286552;stroke-linecap:round"
       d="m 105.34799,153.31602 c -0.0237,-0.0618 0.0336,-0.28333 0.15317,-0.5916 0.15944,-0.41108 0.17358,-0.47962 0.13905,-0.674 -0.0246,-0.13823 -0.0346,-0.15966 -0.08,-0.17106 -0.11596,-0.0291 -0.2392,0.0133 -0.44845,0.15415 -0.19445,0.13092 -0.26429,0.1508 -0.23173,0.0659 0.033,-0.0861 0.51759,-0.36003 0.63681,-0.36003 0.13369,0 0.32682,0.27388 0.32308,0.45815 -0.002,0.12243 -0.15297,0.55037 -0.30424,0.86522 -0.12974,0.27004 -0.16367,0.31582 -0.18769,0.25323 z"
       id="path4" />
    <path
       style="fill:#b2803a;stroke:#d42c2c;stroke-width:0.00505304;stroke-linecap:round"
       d="m 101.65124,153.64493 c -0.0559,-0.0175 -0.084,-0.0728 -0.0682,-0.13439 0.0205,-0.08 0.0962,-0.18969 0.20159,-0.29201 0.0705,-0.0685 0.12688,-0.10855 0.17585,-0.12504 0.0267,-0.009 0.0355,-0.009 0.0566,-0.002 0.0215,0.008 0.0469,0.007 0.0534,-4.2e-4 0.007,-0.009 0.005,-0.0333 -0.006,-0.0656 -0.0199,-0.0584 -0.009,-0.077 0.0378,-0.0643 0.0193,0.005 0.0487,0.0351 0.0651,0.066 0.0267,0.0504 0.0429,0.12207 0.0428,0.18932 -1.2e-4,0.0888 -0.0273,0.14684 -0.10463,0.22371 -0.10668,0.10599 -0.23328,0.18203 -0.33962,0.204 -0.0343,0.007 -0.093,0.007 -0.1147,5.8e-4 z m 0.11925,-0.0898 c 0.0554,-0.0187 0.21841,-0.1074 0.25995,-0.14144 0.01,-0.008 0.017,-0.0171 0.017,-0.0215 0,-0.004 0.01,-0.036 0.0214,-0.0708 0.0271,-0.0799 0.029,-0.10348 0.01,-0.1227 l -0.0124,-0.0124 -0.0387,7e-5 c -0.0354,6e-5 -0.0413,0.001 -0.0682,0.0127 -0.0645,0.0277 -0.12449,0.0777 -0.17697,0.14753 -0.0682,0.0908 -0.10221,0.17804 -0.0812,0.2081 0.008,0.0112 0.0369,0.0114 0.0694,4e-4 z"
       id="path5" />
    <path
       style="fill:#b2803a;stroke:#d42c2c;stroke-width:0.0252297;stroke-linecap:round"
       d="m 112.67977,148.42704 c 0.0168,-0.20908 0.10865,-0.35518 0.20427,-0.32483 0.0467,0.0148 0.13172,0.15771 0.13172,0.22148 0,0.0557 -0.0337,0.0813 -0.21697,0.16437 l -0.1286,0.0583 z"
       id="path6" />
    <path
       style="fill:#b2803a;stroke:#d42c2c;stroke-width:0.0252297;stroke-linecap:round"
       d="m 106.87934,148.27097 c -0.0788,-0.0408 -0.19165,-0.15404 -0.2263,-0.22706 -0.0658,-0.13873 -0.023,-0.22051 0.15066,-0.28764 0.18667,-0.0722 0.36095,-0.0683 0.24833,0.005 -0.0589,0.0386 -0.0603,0.0611 -0.012,0.19845 0.0404,0.11495 0.0484,0.24748 0.0182,0.30381 -0.0239,0.0447 -0.10031,0.0477 -0.17898,0.007 z"
       id="path7" />
    <path
       style="fill:#b2803a;stroke:#d42c2c;stroke-width:0.0252297;stroke-linecap:round"
       d="m 106.45957,152.31554 c -0.02,-0.0293 -0.0605,-0.10857 -0.09,-0.17617 -0.12147,-0.27904 -0.23259,-0.36171 -0.35585,-0.26475 -0.0747,0.0588 -0.11701,0.0464 -0.24825,-0.0726 -0.067,-0.0607 -0.14832,-0.12322 -0.18074,-0.13892 -0.0517,-0.025 -0.0553,-0.0316 -0.0296,-0.0529 0.0743,-0.0617 0.72116,0.1025 0.85819,0.2178 0.0667,0.0561 0.1577,0.25503 0.16841,0.36808 0.007,0.072 7.9e-4,0.0918 -0.0389,0.12889 l -0.0469,0.0438 z"
       id="path8" />
    <path
       style="fill:#b2803a;stroke:#d42c2c;stroke-width:0.0252297;stroke-linecap:round"
       d="m 112.29071,154.11026 c 0.0111,-0.0441 0.008,-0.0463 -0.0552,-0.039 l -0.067,0.008 0.005,-0.0858 c 0.005,-0.0979 0.0781,-0.2532 0.15051,-0.32075 0.0606,-0.0565 0.0621,-0.0771 0.006,-0.0771 -0.0517,0 -0.133,0.0821 -0.29499,0.29784 -0.0644,0.0858 -0.12426,0.15601 -0.13298,0.15601 -0.0306,0 -0.0346,-0.10171 -0.0145,-0.36952 0.0241,-0.32099 0.0222,-0.32574 -0.13481,-0.33399 -0.16335,-0.009 -0.15556,-0.0421 0.059,-0.25392 0.0987,-0.0975 0.19197,-0.17719 0.2072,-0.17719 0.0152,0 0.0602,0.0489 0.0999,0.10874 0.0397,0.0598 0.10596,0.15128 0.14725,0.20328 0.0413,0.052 0.10318,0.15297 0.13754,0.22436 0.081,0.16838 0.11583,0.20656 0.17479,0.19176 0.0403,-0.0101 0.0445,-0.006 0.0347,0.031 -0.017,0.0651 0.0183,0.0933 0.10044,0.0802 0.071,-0.0114 0.1516,0.0153 0.1516,0.0501 0,0.01 -0.0128,0.0183 -0.0284,0.0183 -0.021,0 -0.0284,0.0221 -0.0284,0.0851 0,0.0652 -0.007,0.0851 -0.0301,0.0851 -0.0166,0 -0.0344,0.0165 -0.0397,0.0366 -0.0112,0.043 -0.0965,0.0768 -0.19359,0.0768 -0.0378,0 -0.11294,0.0115 -0.16701,0.0255 l -0.0983,0.0255 z"
       id="path9" />
    <path
       style="fill:#b2803a;stroke:#d42c2c;stroke-width:0.0252297;stroke-linecap:round"
       d="m 112.20269,148.71958 c -0.0658,-0.0659 -0.10163,-0.18367 -0.10142,-0.33392 1.7e-4,-0.12578 0.0211,-0.17843 0.10736,-0.26952 0.10149,-0.10722 0.37073,-0.1796 0.39853,-0.10714 0.0189,0.0492 0.013,0.35208 -0.009,0.47246 -0.0272,0.14741 -0.0658,0.20897 -0.15978,0.25444 -0.10791,0.0522 -0.1713,0.0479 -0.23547,-0.0163 z"
       id="path10" />
    <path
       style="fill:#b2803a;stroke:#d42c2c;stroke-width:0.0245522;stroke-linecap:round"
       d="m 112.03121,144.58202 c 0,-0.0144 0.0382,-0.0702 0.085,-0.12422 0.0467,-0.054 0.12072,-0.17265 0.16442,-0.26374 0.15937,-0.33224 0.12259,-0.36792 -0.13426,-0.13022 -0.0921,0.0853 -0.1855,0.16465 -0.20747,0.17641 -0.0368,0.0197 -0.0389,0.0179 -0.0267,-0.0216 0.0578,-0.18714 0.29472,-0.45704 0.40122,-0.45704 0.102,0 0.3321,0.17807 0.38022,0.29425 0.0268,0.0646 0.004,0.10059 -0.13621,0.21423 -0.089,0.0721 -0.49501,0.33804 -0.51622,0.33804 -0.005,0 -0.01,-0.0117 -0.01,-0.0261 z"
       id="path15" />
    <path
       style="fill:#b2803a;stroke:#d42c2c;stroke-width:0.0245522;stroke-linecap:round"
       d="m 112.3705,145.46779 c -0.1367,-0.0805 -0.25501,-0.20936 -0.27589,-0.30048 l -0.0122,-0.0531 0.0304,0.0411 c 0.0167,0.0226 0.057,0.0481 0.0894,0.0568 0.0499,0.0132 0.0582,0.0233 0.0537,0.0647 -0.006,0.059 -0.005,0.0592 0.077,0.0109 0.0355,-0.021 0.0836,-0.0354 0.10686,-0.0322 0.0354,0.005 0.0432,-0.003 0.0478,-0.0513 0.007,-0.0761 -0.0576,-0.15209 -0.17869,-0.20879 l -0.0936,-0.0439 0.19779,-0.14565 c 0.10878,-0.0801 0.22203,-0.15834 0.25166,-0.17386 0.0911,-0.0477 0.10644,-0.004 0.0987,0.27975 -0.005,0.20108 -0.0127,0.25098 -0.0458,0.31285 -0.0545,0.10214 -0.23554,0.26807 -0.29035,0.26618 -0.0104,-3.7e-4 -0.036,-0.0107 -0.0569,-0.023 z"
       id="path16" />
    <path
       style="fill:#b2803a;stroke:#d42c2c;stroke-width:0.0245522;stroke-linecap:round"
       d="m 111.86083,145.47554 c -0.0948,-0.10492 -0.20761,-0.30688 -0.25327,-0.45336 -0.0273,-0.0875 -0.0431,-0.19677 -0.0494,-0.34045 -0.0107,-0.24541 0.01,-0.35093 0.11352,-0.58411 0.0705,-0.15841 0.0724,-0.20384 0.007,-0.16889 -0.0474,0.0254 -0.10023,0.14542 -0.20182,0.45856 -0.0682,0.21021 -0.0815,0.23819 -0.0862,0.18186 -0.008,-0.0964 0.0436,-0.29917 0.11124,-0.43656 0.0694,-0.14089 0.21895,-0.29738 0.28428,-0.29738 0.0245,0 0.0993,-0.0331 0.16634,-0.0735 0.067,-0.0404 0.12551,-0.0698 0.13003,-0.0653 0.005,0.005 -0.0178,0.041 -0.0495,0.0811 -0.11941,0.15076 -0.19647,0.38393 -0.25196,0.76234 -0.0174,0.11874 -0.0268,0.26891 -0.0223,0.35527 0.007,0.13282 0.0144,0.15855 0.0665,0.22934 0.0323,0.0439 0.0586,0.0951 0.0586,0.11379 0,0.0187 0.0212,0.0537 0.0471,0.0777 0.0405,0.0375 0.0453,0.0533 0.0343,0.11217 -0.0128,0.0681 -0.0125,0.0684 0.0398,0.0553 0.0523,-0.0131 0.0524,-0.013 0.0181,0.025 -0.0501,0.0554 -0.0899,0.0473 -0.16242,-0.0329 z"
       id="path17" />
    <path
       style="fill:#b2803a;stroke:#d42c2c;stroke-width:0.00364395;stroke-linecap:round"
       d="m 103.70007,152.94595 c -0.17933,-0.0196 -0.38695,-0.11826 -0.45655,-0.21686 -0.0186,-0.0263 -0.0254,-0.0495 -0.0228,-0.0774 0.0133,-0.14305 0.15592,-0.31875 0.3758,-0.46295 0.0938,-0.0615 0.15576,-0.0929 0.38215,-0.1937 0.0473,-0.0211 0.0928,-0.0417 0.1011,-0.0459 l 0.0151,-0.008 0.0887,-0.003 0.0887,-0.003 0.0587,0.0106 c 0.30552,0.0549 0.43232,0.11905 0.46175,0.23351 0.029,0.11282 -0.0261,0.24536 -0.15756,0.37925 -0.19131,0.19479 -0.49719,0.34637 -0.77123,0.38219 -0.0408,0.005 -0.13145,0.008 -0.16387,0.004 z m 0.11744,-0.13373 c 0.19754,-0.0136 0.3967,-0.0616 0.5162,-0.12457 0.11994,-0.0632 0.2302,-0.16829 0.29468,-0.28094 0.041,-0.0717 0.0546,-0.14691 0.0351,-0.19431 -0.0353,-0.0859 -0.13254,-0.14046 -0.28475,-0.15972 -0.0357,-0.005 -0.14613,-0.005 -0.19119,-5e-5 -0.22139,0.0221 -0.44726,0.10851 -0.60695,0.23218 -0.0991,0.0767 -0.16533,0.17268 -0.18256,0.2644 -0.005,0.0289 -0.004,0.0784 0.003,0.10294 0.0194,0.07 0.0788,0.1263 0.15321,0.14517 0.025,0.006 0.0731,0.0138 0.10104,0.0158 0.0316,0.002 0.1258,0.002 0.16251,-8.5e-4 z"
       id="path18" />
    <path
       style="fill:#b2803a;stroke:#d42c2c;stroke-width:0.0242901;stroke-linecap:round"
       d="m 108.97943,139.18884 c -0.0773,-0.0415 -0.11479,-0.14247 -0.11484,-0.30913 -3e-5,-0.0826 0.01,-0.16338 0.0227,-0.18662 0.0318,-0.0572 0.0956,-0.0515 0.1586,0.0143 0.0456,0.0476 0.0539,0.0723 0.0598,0.17791 0.007,0.12651 -0.015,0.24597 -0.0555,0.29891 -0.0204,0.0267 -0.0287,0.0273 -0.0708,0.005 z"
       id="path19" />
    <path
       style="fill:#b2803a;stroke:#d42c2c;stroke-width:0.00280559;stroke-linecap:round"
       d="m 108.01038,139.69439 c 0.002,-0.002 0.0329,-0.0278 0.0693,-0.0582 0.0601,-0.0501 0.0754,-0.0616 0.16489,-0.12319 0.0952,-0.0656 0.0987,-0.0678 0.101,-0.0633 0.004,0.007 0.0118,0.01 0.0363,0.0118 0.0301,0.002 0.0406,0.008 0.0406,0.0216 0,0.0142 -0.0252,0.0448 -0.0581,0.0704 -0.0477,0.0373 -0.11634,0.0737 -0.18142,0.0963 -0.0209,0.007 -0.16746,0.0475 -0.173,0.0475 -0.002,0 -0.002,-7.6e-4 5.2e-4,-0.003 z"
       id="path23" />
    <path
       style="fill:#b2803a;stroke:#d42c2c;stroke-width:0.0242901;stroke-linecap:round"
       d="m 108.60988,139.24838 c -0.0704,-0.0627 -0.17447,-0.24985 -0.17447,-0.31389 0,-0.17425 0.17932,-0.11739 0.30474,0.0966 0.0459,0.0782 0.0463,0.082 0.0136,0.10593 -0.0187,0.0137 -0.057,0.0248 -0.0851,0.0248 -0.0604,0 -0.0647,0.0185 -0.0147,0.0637 0.02,0.0181 0.0364,0.0399 0.0364,0.0483 0,0.0271 -0.0331,0.0166 -0.0804,-0.0256 z"
       id="path20" />
    <path
       style="fill:#b2803a;stroke:#d42c2c;stroke-width:0.00539557;stroke-linecap:round"
       d="m 108.21124,139.88445 c -0.009,-0.0126 -0.008,-0.0193 0.006,-0.0457 0.0482,-0.0917 0.25769,-0.29211 0.30778,-0.29451 l 0.0137,-6.6e-4 -5.3e-4,0.0202 c -2.7e-4,0.0119 -0.005,0.0311 -0.0115,0.0465 -0.0434,0.10338 -0.14882,0.21775 -0.24625,0.267 -0.0375,0.019 -0.0592,0.0212 -0.0691,0.007 z"
       id="path21" />
    <path
       style="fill:#b2803a;stroke:#d42c2c;stroke-width:0.00539557;stroke-linecap:round"
       d="m 108.57398,139.74568 c -0.0107,-0.007 -0.0185,-0.0336 -0.0147,-0.0492 0.008,-0.0322 0.039,-0.0755 0.0854,-0.11825 0.0468,-0.0431 0.10468,-0.0692 0.11189,-0.0504 0.005,0.0134 0.002,0.0389 -0.008,0.0653 -0.0374,0.0995 -0.13224,0.18238 -0.17473,0.15261 z"
       id="path22" />
  </g>
</svg>
